<svg xmlns="http://www.w3.org/2000/svg" xmlns:xlink="http://www.w3.org/1999/xlink"><defs><clipPath id="a"><rect width="19.944" height="19.945"/></clipPath></defs><symbol id="icon-arrow-dropdown" viewBox="0 0 10.273 6.042">
  <path id="icon-arrow-dropdown" d="M10.236,14.671a.873.873,0,0,0,0,1.23l4.313,4.3a.869.869,0,0,0,1.2.027L20,15.991a.868.868,0,1,0-1.226-1.23l-3.651,3.6-3.655-3.691A.869.869,0,0,0,10.236,14.671Z" transform="translate(-9.983 -14.413)"/>
</symbol><symbol id="icon-facebook" viewBox="0 0 5.973 12.956">
  <path id="icon-facebook" d="M5.733,6.466H3.961v6.491H1.277V6.466H0V4.185H1.277V2.708A2.517,2.517,0,0,1,3.985,0L5.973.008V2.222H4.53a.546.546,0,0,0-.569.622V4.187H5.967Z"/>
</symbol><symbol id="icon-file" viewBox="0 0 14.651 18.064"><g transform="translate(-5.5 -2.5)"><path d="M14.532,3H7.706A1.706,1.706,0,0,0,6,4.706V18.357a1.706,1.706,0,0,0,1.706,1.706H17.945a1.706,1.706,0,0,0,1.706-1.706V8.119Z" stroke-linecap="round" stroke-linejoin="round" stroke-width="1"/><path d="M21,3V8.119h5.119" transform="translate(-6.468)" stroke-linecap="round" stroke-linejoin="round" stroke-width="1"/><path d="M18.826,19.5H12" transform="translate(-2.587 -7.115)" stroke-linecap="round" stroke-linejoin="round" stroke-width="1"/><path d="M18.826,25.5H12" transform="translate(-2.587 -9.702)" stroke-linecap="round" stroke-linejoin="round" stroke-width="1"/><path d="M13.706,13.5H12" transform="translate(-2.587 -4.528)" stroke-linecap="round" stroke-linejoin="round" stroke-width="1"/></g></symbol><symbol id="icon-heart"><path fill-rule="evenodd" clip-rule="evenodd" d="M13.431 4.642a5.605 5.605 0 017.927 7.927l-1.441 1.441-7.907 7.927-7.927-7.927-1.441-1.441a5.605 5.605 0 017.927-7.927l1.441 1.441 1.421-1.441z"/></symbol><symbol id="icon-inst" viewBox="0 0 24 24"><path d="M12 2.163c3.204 0 3.584.012 4.85.07 3.252.148 4.771 1.691 4.919 4.919.058 1.265.069 1.645.069 4.849 0 3.205-.012 3.584-.069 4.849-.149 3.225-1.664 4.771-4.919 4.919-1.266.058-1.644.07-4.85.07-3.204 0-3.584-.012-4.849-.07-3.26-.149-4.771-1.699-4.919-4.92-.058-1.265-.07-1.644-.07-4.849 0-3.204.013-3.583.07-4.849.149-3.227 1.664-4.771 4.919-4.919 1.266-.057 1.645-.069 4.849-.069zm0-2.163c-3.259 0-3.667.014-4.947.072-4.358.2-6.78 2.618-6.98 6.98-.059 1.281-.073 1.689-.073 4.948 0 3.259.014 3.668.072 4.948.2 4.358 2.618 6.78 6.98 6.98 1.281.058 1.689.072 4.948.072 3.259 0 3.668-.014 4.948-.072 4.354-.2 6.782-2.618 6.979-6.98.059-1.28.073-1.689.073-4.948 0-3.259-.014-3.667-.072-4.947-.196-4.354-2.617-6.78-6.979-6.98-1.281-.059-1.69-.073-4.949-.073zm0 5.838c-3.403 0-6.162 2.759-6.162 6.162s2.759 6.163 6.162 6.163 6.162-2.759 6.162-6.163c0-3.403-2.759-6.162-6.162-6.162zm0 10.162c-2.209 0-4-1.79-4-4 0-2.209 1.791-4 4-4s4 1.791 4 4c0 2.21-1.791 4-4 4zm6.406-11.845c-.796 0-1.441.645-1.441 1.44s.645 1.44 1.441 1.44c.795 0 1.439-.645 1.439-1.44s-.644-1.44-1.439-1.44z"/></symbol><symbol id="icon-pinterest" viewBox="0 0 9.593 12.33">
  <path id="icon-pinterest" d="M5.6,8.943a3.358,3.358,0,0,1-1.655-.788c-.324,1.7-.719,3.325-1.89,4.175C1.691,9.765,2.584,7.838,3,5.792,2.291,4.6,3.083,2.209,4.573,2.8c1.834.725-1.588,4.422.709,4.884,2.4.482,3.378-4.162,1.89-5.672C5.024-.17.917,1.961,1.422,5.083c.123.763.912.995.315,2.048C.362,6.827-.048,5.742,0,4.3A4.628,4.628,0,0,1,4.18.041C6.77-.248,9.2.993,9.537,3.429,9.914,6.179,8.367,9.157,5.6,8.943Z"/>
</symbol><symbol id="icon-search" viewBox="0 0 19.944 19.945"><g clip-path="url(#a)"><path d="M18.279,19.945a1.656,1.656,0,0,1-1.179-.488l-4.334-4.334a.389.389,0,0,1-.034-.041c-.009-.011-.017-.022-.026-.033a8.2,8.2,0,1,1,2.344-2.344l.032.026a.4.4,0,0,1,.042.035L19.457,17.1a1.667,1.667,0,0,1-1.179,2.845ZM8.2,2.842A5.358,5.358,0,1,0,13.558,8.2,5.364,5.364,0,0,0,8.2,2.842Z" transform="translate(0 0)"/></g></symbol><symbol id="icon-twitter" viewBox="0 0 11.568 9.401">
  <path id="icon-twitter" d="M11.568,1.113a4.735,4.735,0,0,1-1.363.373A2.38,2.38,0,0,0,11.248.173,4.751,4.751,0,0,1,9.741.749,2.375,2.375,0,0,0,5.7,2.914,6.737,6.737,0,0,1,.805.434,2.376,2.376,0,0,0,1.539,3.6a2.357,2.357,0,0,1-1.075-.3c0,.01,0,.02,0,.03a2.375,2.375,0,0,0,1.9,2.327A2.382,2.382,0,0,1,1.3,5.7,2.376,2.376,0,0,0,3.514,7.352,4.762,4.762,0,0,1,.566,8.368,4.779,4.779,0,0,1,0,8.335,6.713,6.713,0,0,0,3.638,9.4,6.707,6.707,0,0,0,10.39,2.648c0-.1,0-.205-.007-.307a4.813,4.813,0,0,0,1.184-1.228Z"/>
</symbol><symbol id="icon-vk" viewBox="0 0 13.037 7.438">
  <path id="icon-vk" d="M6.379,7.406h.779a.657.657,0,0,0,.356-.155.57.57,0,0,0,.107-.342s-.015-1.046.47-1.2S9.183,6.72,9.835,7.167a1.234,1.234,0,0,0,.867.264l1.741-.024s.911-.056.479-.772a5.818,5.818,0,0,0-1.295-1.5c-1.092-1.013-.945-.849.37-2.6.8-1.067,1.121-1.719,1.021-2s-.684-.2-.684-.2l-1.96.012A.445.445,0,0,0,10.119.4a.549.549,0,0,0-.173.21,11.351,11.351,0,0,1-.724,1.528C8.349,3.619,8,3.7,7.858,3.6c-.332-.215-.249-.862-.249-1.322,0-1.436.218-2.035-.424-2.19A3.347,3.347,0,0,0,6.269,0,4.225,4.225,0,0,0,4.643.168c-.223.109-.4.353-.29.367a.88.88,0,0,1,.579.291,1.891,1.891,0,0,1,.194.887s.115,1.691-.27,1.9c-.264.144-.627-.15-1.4-1.495a12.5,12.5,0,0,1-.7-1.45A.583.583,0,0,0,2.589.45a.812.812,0,0,0-.3-.122L.425.341S.145.349.043.47.035.8.035.8a21.2,21.2,0,0,0,3.11,5.132A4.473,4.473,0,0,0,6.379,7.406Z"/>
</symbol><symbol id="logo-profit" viewBox="0 0 98.191 98.19">
  <path id="Path_7" data-name="Path 7" d="M396.721,505.171A4.074,4.074,0,1,0,400.8,501.1,4.074,4.074,0,0,0,396.721,505.171Z" transform="translate(-351.7 -456.077)"/>
  <path id="Path_8" data-name="Path 8" d="M372.759,428.041a49.1,49.1,0,1,0,27.354,89.842l.557-.375-2.748-3.412-.468.312a44.737,44.737,0,1,1,5.089-70.6l-4.826,4.968a37.774,37.774,0,0,0-54.735,51.607l.437.558,3.057-3.166-.321-.421a33.427,33.427,0,1,1,28.786,13.136V503.6a26.607,26.607,0,0,0,24-22.023l.122-.719h-4.418l-.1.5a22.192,22.192,0,0,1-43.874-2.04h6.927a15.313,15.313,0,1,0,19.64-16.824l-.8-.245v4.574l.386.155a10.952,10.952,0,1,1-8.151,0l.387-.155v-4.568l-.8.245a15.343,15.343,0,0,0-10.66,12.454h-6.935a22.192,22.192,0,0,1,43.886-1.975l.1.5h4.418l-.12-.717A26.562,26.562,0,1,0,370.577,503.6v6.9a33.273,33.273,0,0,1-18.5-7.1l-.438-.346-3.036,3.144.526.423a37.77,37.77,0,0,0,51.683-54.764l4.829-4.971a44.6,44.6,0,0,1-1.592,62.179l-.4.391,2.743,3.407.485-.47a49.061,49.061,0,0,0-34.122-84.345Z" transform="translate(-323.664 -428.041)"/>
</symbol><symbol id="simple-arrow" viewBox="0 0 8 13.995">
  <path id="simple-arrow" d="M7.712,7.69,1.678,13.708a.981.981,0,0,1-1.39-1.386L5.627,7,.288,1.673A.981.981,0,0,1,1.678.287L7.712,6.3a.978.978,0,0,1,0,1.386Z"/>
</symbol></svg>