<svg xmlns="http://www.w3.org/2000/svg" width="160.586" height="45.021" viewBox="0 0 160.586 45.021">
  <g id="mail-logo" transform="translate(-323.664 -428.041)">
    <g id="Group_1" data-name="Group 1" transform="translate(372.164 432.22)">
      <path id="Path_1" data-name="Path 1" d="M639.705,475.94a2.638,2.638,0,0,1-5.276,0V446.815a2.638,2.638,0,1,1,5.276,0Zm-2.37-33.1H636.8a5.063,5.063,0,0,0-5.049,5.049v26.969a5.063,5.063,0,0,0,5.049,5.049h.536a5.063,5.063,0,0,0,5.048-5.049V447.893a5.063,5.063,0,0,0-5.048-5.049" transform="translate(-593.199 -442.84)" fill="#004b79"/>
      <path id="Path_2" data-name="Path 2" d="M574.745,459.147a2.56,2.56,0,0,1-2.534,2.618,2.625,2.625,0,0,1-2.618-2.618s0-2.076,0-4.549c0-5.068,0-9.07,0-9.3a4.455,4.455,0,0,0-.227-1.174l2.923,0a2.55,2.55,0,0,1,2.453,2.638ZM574.6,443.07a3.937,3.937,0,0,0-1.3-.239l-8.008,0a.662.662,0,0,0-.213.036.562.562,0,0,0,.159,1.1h.195c1.12,0,1.345.812,1.345,1.471v32.694c0,.414-.635.633-1.133.633h0l-.662,0a.532.532,0,0,0-.47.266.574.574,0,0,0,.487.87h4.922a.532.532,0,0,0,.47-.266c0-.006,0-.011.007-.017a.518.518,0,0,0,.076-.2.57.57,0,0,0-.562-.654h-1.164a.138.138,0,0,1-.11-.222c.057-.07.1-.145.152-.218.015-.022.031-.044.046-.066a5.066,5.066,0,0,0,.752-2.607V464.777h0c0-1.019,0-1.761,0-1.994a3.939,3.939,0,0,0,1.3.223h2.368a4.115,4.115,0,0,0,4.113-3.988v-12.2a4.143,4.143,0,0,0-2.764-3.747" transform="translate(-544.898 -442.831)" fill="#004b79"/>
      <path id="Path_3" data-name="Path 3" d="M510.466,478.776a1.953,1.953,0,0,1-2.024-1.652c0-1.416.01-33.274.01-33.274a.994.994,0,0,0-.192-.585,1.015,1.015,0,0,0-.255-.249.79.79,0,0,0-.455-.175H496.1a.567.567,0,0,0-.562.568c0,.273.191.571.456.571h.339c.069,0,.134,0,.2.009a1.36,1.36,0,0,1,1.231,1.46v24.169c.031,2.233.067,7.925-.151,8.528a1.114,1.114,0,0,1-1.093.633h-.647a.545.545,0,0,0-.489.284.573.573,0,0,0,.391.84.551.551,0,0,0,.125.014h4.913a.544.544,0,0,0,.489-.284.585.585,0,0,0-.516-.854h-1.154a.136.136,0,0,1-.1-.219,4.9,4.9,0,0,0,.95-2.891c0-.7.014-29.695.014-30.375a2.7,2.7,0,0,0-.232-1.152h5.26a.235.235,0,0,1,.235.236s.042,30.914.042,31.371.13,4.161,3.545,4.161c1.93,0,1.836-1.133,1.122-1.133" transform="translate(-495.313 -442.838)" fill="#004b79"/>
      <path id="Path_4" data-name="Path 4" d="M851.865,444.073s0-1.22-.773-1.22H836.832c-.774,0-.774,1.22-.774,1.22s0,2.216,0,2.924a.809.809,0,1,0,1.611,0c0-.963.322-3,1.482-3l2.364,0a1.259,1.259,0,0,1,1.337.924c.048.407.079,1.145.1,2.032v6.2s-.009,24.314-.012,25c0,.414-.74.641-1.231.641h-.592a.6.6,0,0,0-.607.482.569.569,0,0,0,.561.654h4.859a.6.6,0,0,0,.608-.481.57.57,0,0,0-.562-.654h-1.164a.138.138,0,0,1-.11-.222,4.677,4.677,0,0,0,.95-2.891c0-.233.015-30.021.015-30.374a2.591,2.591,0,0,0-.318-1.314l3.426,0c1.16,0,1.482,2.041,1.482,3a.809.809,0,1,0,1.611,0c0-.708,0-2.924,0-2.924" transform="translate(-739.779 -442.847)" fill="#004b79"/>
      <path id="Path_5" data-name="Path 5" d="M706.538,469.329a2.5,2.5,0,0,1-2.358,2.623H700.9c0-5.341.007-15.192.01-21.311h3.272a2.647,2.647,0,0,1,2.358,2.623Zm-11.611,2.623a2.549,2.549,0,0,1-2.358-2.623V453.264a2.647,2.647,0,0,1,2.358-2.623h3.27s.017,20.4.021,21.311Zm9.284-22.657-.027,0h-3.274c0-.552,0-1.057,0-1.512,0-1.449,0-2.368,0-2.482a2.3,2.3,0,0,0-1.937-2.415,3.129,3.129,0,0,0-.413-.036l-1.959,0a.6.6,0,0,0-.608.481.57.57,0,0,0,.561.655h.195c1.12,0,1.4.776,1.446,1.471v3.838h-3.274l-.027,0a5.062,5.062,0,0,0-5.006,5.046v13.911A5.062,5.062,0,0,0,694.9,473.3l3.324,0a36.711,36.711,0,0,1-.174,4.85,1.13,1.13,0,0,1-1.093.633h-.593a.6.6,0,0,0-.607.481.569.569,0,0,0,.561.654h4.859a.6.6,0,0,0,.607-.481.569.569,0,0,0-.561-.654h-1.165a.138.138,0,0,1-.109-.222,4.9,4.9,0,0,0,.95-2.891c0-.114,0-.99,0-2.371l3.314,0a5.062,5.062,0,0,0,5.006-5.046V454.341a5.062,5.062,0,0,0-5.006-5.046" transform="translate(-634.911 -442.842)" fill="#004b79"/>
      <path id="Path_6" data-name="Path 6" d="M786.3,478.806h-.593c-.485-.073-.952-.244-1.093-.633a24.983,24.983,0,0,1-.168-3.653l.029-30.917a.677.677,0,0,0-.677-.678h-1.356a.682.682,0,0,0-.654.507s-.011.039-.015.056c-.2.987-5.636,28.259-5.636,28.259,0-25.494,0-26.271,0-26.375a2.305,2.305,0,0,0-1.938-2.416,3.093,3.093,0,0,0-.413-.036l-1.959,0a.6.6,0,0,0-.607.481.569.569,0,0,0,.561.654h.195c1.12,0,1.4.776,1.447,1.471v33.744a.677.677,0,0,0,.677.677h1.355a.681.681,0,0,0,.652-.5l.026-.109,5.626-28.214c0,.29,0,20.508,0,21.074v2.32h0v1.173a4.9,4.9,0,0,0,.95,2.891.138.138,0,0,1-.11.222h-1.164a.569.569,0,0,0-.561.654.6.6,0,0,0,.607.481h4.86a.569.569,0,0,0,.561-.654.6.6,0,0,0-.607-.481" transform="translate(-693.262 -442.896)" fill="#004b79"/>
    </g>
    <g id="Group_2" data-name="Group 2" transform="translate(323.664 428.041)">
      <path id="Path_7" data-name="Path 7" d="M396.721,502.966a1.868,1.868,0,1,0,1.868-1.868A1.868,1.868,0,0,0,396.721,502.966Z" transform="translate(-376.078 -480.455)" fill="#ec1c24"/>
      <path id="Path_8" data-name="Path 8" d="M346.175,428.041a22.51,22.51,0,1,0,12.542,41.193l.255-.172-1.26-1.564-.215.143a20.512,20.512,0,1,1,2.333-32.37l-2.213,2.278a17.319,17.319,0,0,0-25.1,23.662l.2.256,1.4-1.451-.147-.193a15.326,15.326,0,1,1,13.2,6.023v-3.16a12.2,12.2,0,0,0,11.006-10.1l.056-.33h-2.026l-.044.229a10.175,10.175,0,0,1-20.116-.935h3.176a7.021,7.021,0,1,0,9.005-7.714l-.365-.112v2.1l.177.071a5.022,5.022,0,1,1-3.737,0l.177-.071v-2.094l-.366.112a7.035,7.035,0,0,0-4.888,5.71h-3.18a10.175,10.175,0,0,1,20.122-.906l.044.23h2.026l-.055-.329a12.179,12.179,0,1,0-13.013,14.139v3.162a15.255,15.255,0,0,1-8.481-3.256l-.2-.159-1.392,1.442.241.194a17.318,17.318,0,0,0,23.7-25.11l2.214-2.279a20.449,20.449,0,0,1-.73,28.509l-.183.179,1.258,1.562.222-.215a22.495,22.495,0,0,0-15.645-38.673Z" transform="translate(-323.664 -428.041)" fill="#004b79"/>
    </g>
  </g>
</svg>
