<svg xmlns="http://www.w3.org/2000/svg" width="13.037" height="7.438" viewBox="0 0 13.037 7.438">
  <path id="icon-vk" d="M6.379,7.406h.779a.657.657,0,0,0,.356-.155.57.57,0,0,0,.107-.342s-.015-1.046.47-1.2S9.183,6.72,9.835,7.167a1.234,1.234,0,0,0,.867.264l1.741-.024s.911-.056.479-.772a5.818,5.818,0,0,0-1.295-1.5c-1.092-1.013-.945-.849.37-2.6.8-1.067,1.121-1.719,1.021-2s-.684-.2-.684-.2l-1.96.012A.445.445,0,0,0,10.119.4a.549.549,0,0,0-.173.21,11.351,11.351,0,0,1-.724,1.528C8.349,3.619,8,3.7,7.858,3.6c-.332-.215-.249-.862-.249-1.322,0-1.436.218-2.035-.424-2.19A3.347,3.347,0,0,0,6.269,0,4.225,4.225,0,0,0,4.643.168c-.223.109-.4.353-.29.367a.88.88,0,0,1,.579.291,1.891,1.891,0,0,1,.194.887s.115,1.691-.27,1.9c-.264.144-.627-.15-1.4-1.495a12.5,12.5,0,0,1-.7-1.45A.583.583,0,0,0,2.589.45a.812.812,0,0,0-.3-.122L.425.341S.145.349.043.47.035.8.035.8a21.2,21.2,0,0,0,3.11,5.132A4.473,4.473,0,0,0,6.379,7.406Z" fill="#fff"/>
</svg>
