<svg xmlns="http://www.w3.org/2000/svg" width="9.593" height="12.33" viewBox="0 0 9.593 12.33">
  <path id="icon-pinterest" d="M5.6,8.943a3.358,3.358,0,0,1-1.655-.788c-.324,1.7-.719,3.325-1.89,4.175C1.691,9.765,2.584,7.838,3,5.792,2.291,4.6,3.083,2.209,4.573,2.8c1.834.725-1.588,4.422.709,4.884,2.4.482,3.378-4.162,1.89-5.672C5.024-.17.917,1.961,1.422,5.083c.123.763.912.995.315,2.048C.362,6.827-.048,5.742,0,4.3A4.628,4.628,0,0,1,4.18.041C6.77-.248,9.2.993,9.537,3.429,9.914,6.179,8.367,9.157,5.6,8.943Z" fill="#fff"/>
</svg>
