<svg xmlns="http://www.w3.org/2000/svg" width="11.568" height="9.401" viewBox="0 0 11.568 9.401">
  <path id="icon-twitter" d="M11.568,1.113a4.735,4.735,0,0,1-1.363.373A2.38,2.38,0,0,0,11.248.173,4.751,4.751,0,0,1,9.741.749,2.375,2.375,0,0,0,5.7,2.914,6.737,6.737,0,0,1,.805.434,2.376,2.376,0,0,0,1.539,3.6a2.357,2.357,0,0,1-1.075-.3c0,.01,0,.02,0,.03a2.375,2.375,0,0,0,1.9,2.327A2.382,2.382,0,0,1,1.3,5.7,2.376,2.376,0,0,0,3.514,7.352,4.762,4.762,0,0,1,.566,8.368,4.779,4.779,0,0,1,0,8.335,6.713,6.713,0,0,0,3.638,9.4,6.707,6.707,0,0,0,10.39,2.648c0-.1,0-.205-.007-.307a4.813,4.813,0,0,0,1.184-1.228Z" fill="#fff"/>
</svg>
