<svg id="logo-profit" xmlns="http://www.w3.org/2000/svg" width="98.191" height="98.19" viewBox="0 0 98.191 98.19">
  <path id="Path_7" data-name="Path 7" d="M396.721,505.171A4.074,4.074,0,1,0,400.8,501.1,4.074,4.074,0,0,0,396.721,505.171Z" transform="translate(-351.7 -456.077)" fill="#d1dbe3"/>
  <path id="Path_8" data-name="Path 8" d="M372.759,428.041a49.1,49.1,0,1,0,27.354,89.842l.557-.375-2.748-3.412-.468.312a44.737,44.737,0,1,1,5.089-70.6l-4.826,4.968a37.774,37.774,0,0,0-54.735,51.607l.437.558,3.057-3.166-.321-.421a33.427,33.427,0,1,1,28.786,13.136V503.6a26.607,26.607,0,0,0,24-22.023l.122-.719h-4.418l-.1.5a22.192,22.192,0,0,1-43.874-2.04h6.927a15.313,15.313,0,1,0,19.64-16.824l-.8-.245v4.574l.386.155a10.952,10.952,0,1,1-8.151,0l.387-.155v-4.568l-.8.245a15.343,15.343,0,0,0-10.66,12.454h-6.935a22.192,22.192,0,0,1,43.886-1.975l.1.5h4.418l-.12-.717A26.562,26.562,0,1,0,370.577,503.6v6.9a33.273,33.273,0,0,1-18.5-7.1l-.438-.346-3.036,3.144.526.423a37.77,37.77,0,0,0,51.683-54.764l4.829-4.971a44.6,44.6,0,0,1-1.592,62.179l-.4.391,2.743,3.407.485-.47a49.061,49.061,0,0,0-34.122-84.345Z" transform="translate(-323.664 -428.041)" fill="#d1dbe3"/>
</svg>
